STARTFONT 2.1
FONT -artwiz-aqui-medium-r-normal--11-110-75-75-p-90-ISO8859-1
SIZE 11 75 75
FONTBOUNDINGBOX 11 13 0 -3
STARTPROPERTIES 27
FONTNAME_REGISTRY ""
FOUNDRY "artwiz"
FAMILY_NAME "aqui"
WEIGHT_NAME "medium"
SLANT "r"
SETWIDTH_NAME "normal"
ADD_STYLE_NAME ""
PIXEL_SIZE 11
POINT_SIZE 110
RESOLUTION_X 75
RESOLUTION_Y 75
SPACING "p"
AVERAGE_WIDTH 90
CHARSET_REGISTRY "ISO8859"
CHARSET_ENCODING "1"
COPYRIGHT "artwiz, fixed by aleczapka, latin1 chars by Sergio Martins"
FACE_NAME "aqui"
WEIGHT 10
RESOLUTION 99
X_HEIGHT 9
QUAD_WIDTH 7
_XMBDFED_INFO "Edited with xmbdfed 4.7."
DEFAULT_CHAR 63
FONT_ASCENT 10
FONT_DESCENT 3
_ORIGINAL_FONT_NAME "aqui"
_GBDFED_INFO "Edited with gbdfed 1.1."
ENDPROPERTIES
CHARS 190
STARTCHAR char32
ENCODING 32
SWIDTH 698 0
DWIDTH 8 0
BBX 0 0 0 0
BITMAP
ENDCHAR
STARTCHAR char33
ENCODING 33
SWIDTH 349 0
DWIDTH 4 0
BBX 2 10 1 -1
BITMAP
C0
C0
C0
C0
C0
C0
C0
00
C0
C0
ENDCHAR
STARTCHAR char34
ENCODING 34
SWIDTH 610 0
DWIDTH 7 0
BBX 5 3 1 6
BITMAP
D8
D8
D8
ENDCHAR
STARTCHAR char35
ENCODING 35
SWIDTH 785 0
DWIDTH 9 0
BBX 7 7 1 0
BITMAP
6C
6C
EE
6C
EE
6C
6C
ENDCHAR
STARTCHAR char36
ENCODING 36
SWIDTH 698 0
DWIDTH 8 0
BBX 6 9 1 -1
BITMAP
10
7C
D0
D0
78
2C
2C
F8
20
ENDCHAR
STARTCHAR char37
ENCODING 37
SWIDTH 872 0
DWIDTH 10 0
BBX 9 7 0 0
BITMAP
6100
B200
6400
0800
1300
2580
4300
ENDCHAR
STARTCHAR char38
ENCODING 38
SWIDTH 785 0
DWIDTH 9 0
BBX 7 8 1 0
BITMAP
70
D8
D8
70
DE
D8
D8
76
ENDCHAR
STARTCHAR char39
ENCODING 39
SWIDTH 349 0
DWIDTH 4 0
BBX 2 4 1 5
BITMAP
C0
C0
40
80
ENDCHAR
STARTCHAR char40
ENCODING 40
SWIDTH 349 0
DWIDTH 4 0
BBX 3 11 1 -2
BITMAP
60
C0
C0
C0
C0
C0
C0
C0
C0
C0
60
ENDCHAR
STARTCHAR char41
ENCODING 41
SWIDTH 349 0
DWIDTH 4 0
BBX 3 11 1 -2
BITMAP
C0
60
60
60
60
60
60
60
60
60
C0
ENDCHAR
STARTCHAR char42
ENCODING 42
SWIDTH 436 0
DWIDTH 5 0
BBX 4 5 1 1
BITMAP
90
60
F0
60
90
ENDCHAR
STARTCHAR char43
ENCODING 43
SWIDTH 610 0
DWIDTH 7 0
BBX 5 5 1 1
BITMAP
20
20
F8
20
20
ENDCHAR
STARTCHAR char44
ENCODING 44
SWIDTH 349 0
DWIDTH 4 0
BBX 2 4 1 -2
BITMAP
C0
C0
40
80
ENDCHAR
STARTCHAR char45
ENCODING 45
SWIDTH 610 0
DWIDTH 7 0
BBX 5 2 1 3
BITMAP
F8
F8
ENDCHAR
STARTCHAR char46
ENCODING 46
SWIDTH 349 0
DWIDTH 4 0
BBX 2 2 1 0
BITMAP
C0
C0
ENDCHAR
STARTCHAR char47
ENCODING 47
SWIDTH 698 0
DWIDTH 8 0
BBX 6 10 1 -1
BITMAP
0C
0C
18
18
30
30
60
60
C0
C0
ENDCHAR
STARTCHAR char48
ENCODING 48
SWIDTH 610 0
DWIDTH 7 0
BBX 6 8 1 0
BITMAP
78
CC
CC
CC
CC
CC
CC
78
ENDCHAR
STARTCHAR char49
ENCODING 49
SWIDTH 436 0
DWIDTH 5 0
BBX 3 8 1 0
BITMAP
E0
60
60
60
60
60
60
60
ENDCHAR
STARTCHAR char50
ENCODING 50
SWIDTH 698 0
DWIDTH 8 0
BBX 6 8 1 0
BITMAP
78
8C
0C
18
30
60
C0
FC
ENDCHAR
STARTCHAR char51
ENCODING 51
SWIDTH 610 0
DWIDTH 7 0
BBX 6 8 1 0
BITMAP
F8
0C
0C
78
0C
0C
0C
F8
ENDCHAR
STARTCHAR char52
ENCODING 52
SWIDTH 698 0
DWIDTH 8 0
BBX 6 8 1 0
BITMAP
CC
CC
CC
CC
7C
0C
0C
0C
ENDCHAR
STARTCHAR char53
ENCODING 53
SWIDTH 698 0
DWIDTH 8 0
BBX 6 8 1 0
BITMAP
FC
C0
C0
F8
0C
0C
8C
78
ENDCHAR
STARTCHAR char54
ENCODING 54
SWIDTH 698 0
DWIDTH 8 0
BBX 6 8 1 0
BITMAP
78
C0
C0
F8
CC
CC
CC
78
ENDCHAR
STARTCHAR char55
ENCODING 55
SWIDTH 698 0
DWIDTH 8 0
BBX 6 8 1 0
BITMAP
FC
0C
0C
18
18
30
30
30
ENDCHAR
STARTCHAR char56
ENCODING 56
SWIDTH 698 0
DWIDTH 8 0
BBX 6 8 1 0
BITMAP
78
CC
CC
78
CC
CC
CC
78
ENDCHAR
STARTCHAR char57
ENCODING 57
SWIDTH 698 0
DWIDTH 8 0
BBX 6 8 1 0
BITMAP
78
CC
CC
CC
7C
0C
0C
38
ENDCHAR
STARTCHAR char58
ENCODING 58
SWIDTH 349 0
DWIDTH 4 0
BBX 2 7 1 0
BITMAP
C0
C0
00
00
00
C0
C0
ENDCHAR
STARTCHAR char59
ENCODING 59
SWIDTH 349 0
DWIDTH 4 0
BBX 2 9 1 -2
BITMAP
C0
C0
00
00
00
C0
C0
40
80
ENDCHAR
STARTCHAR char60
ENCODING 60
SWIDTH 610 0
DWIDTH 7 0
BBX 5 7 1 0
BITMAP
18
30
60
C0
60
30
18
ENDCHAR
STARTCHAR char61
ENCODING 61
SWIDTH 610 0
DWIDTH 7 0
BBX 5 5 1 1
BITMAP
F8
F8
00
F8
F8
ENDCHAR
STARTCHAR char62
ENCODING 62
SWIDTH 610 0
DWIDTH 7 0
BBX 5 7 1 0
BITMAP
C0
60
30
18
30
60
C0
ENDCHAR
STARTCHAR char63
ENCODING 63
SWIDTH 698 0
DWIDTH 8 0
BBX 6 8 1 0
BITMAP
F8
0C
0C
18
30
30
00
30
ENDCHAR
STARTCHAR char64
ENCODING 64
SWIDTH 698 0
DWIDTH 8 0
BBX 6 7 1 0
BITMAP
78
CC
CC
DC
DC
C0
7C
ENDCHAR
STARTCHAR char65
ENCODING 65
SWIDTH 698 0
DWIDTH 8 0
BBX 6 8 1 0
BITMAP
78
CC
CC
CC
FC
CC
CC
CC
ENDCHAR
STARTCHAR char66
ENCODING 66
SWIDTH 698 0
DWIDTH 8 0
BBX 6 8 1 0
BITMAP
F8
CC
CC
F8
CC
CC
CC
F8
ENDCHAR
STARTCHAR char67
ENCODING 67
SWIDTH 698 0
DWIDTH 8 0
BBX 6 8 1 0
BITMAP
78
C4
C0
C0
C0
C0
C4
78
ENDCHAR
STARTCHAR char68
ENCODING 68
SWIDTH 698 0
DWIDTH 8 0
BBX 6 8 1 0
BITMAP
F8
CC
CC
CC
CC
CC
CC
F8
ENDCHAR
STARTCHAR char69
ENCODING 69
SWIDTH 698 0
DWIDTH 8 0
BBX 6 8 1 0
BITMAP
FC
C0
C0
F8
C0
C0
C0
FC
ENDCHAR
STARTCHAR char70
ENCODING 70
SWIDTH 698 0
DWIDTH 8 0
BBX 6 8 1 0
BITMAP
FC
C0
C0
F8
C0
C0
C0
C0
ENDCHAR
STARTCHAR char71
ENCODING 71
SWIDTH 698 0
DWIDTH 8 0
BBX 6 8 1 0
BITMAP
78
C0
C0
DC
CC
CC
CC
78
ENDCHAR
STARTCHAR char72
ENCODING 72
SWIDTH 698 0
DWIDTH 8 0
BBX 6 8 1 0
BITMAP
CC
CC
CC
FC
CC
CC
CC
CC
ENDCHAR
STARTCHAR char73
ENCODING 73
SWIDTH 523 0
DWIDTH 6 0
BBX 4 8 1 0
BITMAP
F0
60
60
60
60
60
60
F0
ENDCHAR
STARTCHAR char74
ENCODING 74
SWIDTH 698 0
DWIDTH 8 0
BBX 6 8 1 0
BITMAP
0C
0C
0C
0C
0C
0C
CC
78
ENDCHAR
STARTCHAR char75
ENCODING 75
SWIDTH 698 0
DWIDTH 8 0
BBX 6 8 1 0
BITMAP
CC
CC
CC
F8
CC
CC
CC
CC
ENDCHAR
STARTCHAR char76
ENCODING 76
SWIDTH 698 0
DWIDTH 8 0
BBX 6 8 1 0
BITMAP
C0
C0
C0
C0
C0
C0
C0
FC
ENDCHAR
STARTCHAR char77
ENCODING 77
SWIDTH 1047 0
DWIDTH 12 0
BBX 10 8 1 0
BITMAP
FF80
CCC0
CCC0
CCC0
CCC0
CCC0
CCC0
CCC0
ENDCHAR
STARTCHAR char78
ENCODING 78
SWIDTH 698 0
DWIDTH 8 0
BBX 6 8 1 0
BITMAP
F8
CC
CC
CC
CC
CC
CC
CC
ENDCHAR
STARTCHAR char79
ENCODING 79
SWIDTH 698 0
DWIDTH 8 0
BBX 6 8 1 0
BITMAP
78
CC
CC
CC
CC
CC
CC
78
ENDCHAR
STARTCHAR char80
ENCODING 80
SWIDTH 698 0
DWIDTH 8 0
BBX 6 8 1 0
BITMAP
F8
CC
CC
CC
F8
C0
C0
C0
ENDCHAR
STARTCHAR char81
ENCODING 81
SWIDTH 698 0
DWIDTH 8 0
BBX 6 9 1 -1
BITMAP
78
CC
CC
CC
CC
CC
CC
78
1C
ENDCHAR
STARTCHAR char82
ENCODING 82
SWIDTH 698 0
DWIDTH 8 0
BBX 6 8 1 0
BITMAP
F8
CC
CC
F8
CC
CC
CC
CC
ENDCHAR
STARTCHAR char83
ENCODING 83
SWIDTH 698 0
DWIDTH 8 0
BBX 6 8 1 0
BITMAP
7C
C0
E0
70
38
1C
0C
F8
ENDCHAR
STARTCHAR char84
ENCODING 84
SWIDTH 698 0
DWIDTH 8 0
BBX 6 8 1 0
BITMAP
FC
30
30
30
30
30
30
30
ENDCHAR
STARTCHAR char85
ENCODING 85
SWIDTH 698 0
DWIDTH 8 0
BBX 6 8 1 0
BITMAP
CC
CC
CC
CC
CC
CC
CC
7C
ENDCHAR
STARTCHAR char86
ENCODING 86
SWIDTH 698 0
DWIDTH 8 0
BBX 6 8 1 0
BITMAP
CC
CC
CC
CC
CC
D8
F0
E0
ENDCHAR
STARTCHAR char87
ENCODING 87
SWIDTH 1047 0
DWIDTH 12 0
BBX 10 8 1 0
BITMAP
CCC0
CCC0
CCC0
CCC0
CCC0
CCC0
CCC0
7F80
ENDCHAR
STARTCHAR char88
ENCODING 88
SWIDTH 698 0
DWIDTH 8 0
BBX 6 8 1 0
BITMAP
CC
CC
CC
78
CC
CC
CC
CC
ENDCHAR
STARTCHAR char89
ENCODING 89
SWIDTH 698 0
DWIDTH 8 0
BBX 6 8 1 0
BITMAP
CC
CC
78
30
30
30
30
30
ENDCHAR
STARTCHAR char90
ENCODING 90
SWIDTH 698 0
DWIDTH 8 0
BBX 6 8 1 0
BITMAP
FC
0C
1C
38
70
E0
C0
FC
ENDCHAR
STARTCHAR char91
ENCODING 91
SWIDTH 523 0
DWIDTH 6 0
BBX 4 11 1 -2
BITMAP
F0
C0
C0
C0
C0
C0
C0
C0
C0
C0
F0
ENDCHAR
STARTCHAR char92
ENCODING 92
SWIDTH 698 0
DWIDTH 8 0
BBX 6 10 1 -1
BITMAP
C0
C0
60
60
30
30
18
18
0C
0C
ENDCHAR
STARTCHAR char93
ENCODING 93
SWIDTH 523 0
DWIDTH 6 0
BBX 4 11 1 -2
BITMAP
F0
30
30
30
30
30
30
30
30
30
F0
ENDCHAR
STARTCHAR char94
ENCODING 94
SWIDTH 610 0
DWIDTH 7 0
BBX 5 4 1 4
BITMAP
20
70
D8
88
ENDCHAR
STARTCHAR char95
ENCODING 95
SWIDTH 698 0
DWIDTH 8 0
BBX 6 2 1 -1
BITMAP
FC
FC
ENDCHAR
STARTCHAR char96
ENCODING 96
SWIDTH 349 0
DWIDTH 4 0
BBX 2 4 1 5
BITMAP
40
80
C0
C0
ENDCHAR
STARTCHAR char97
ENCODING 97
SWIDTH 698 0
DWIDTH 8 0
BBX 6 7 1 0
BITMAP
78
0C
7C
CC
CC
CC
7C
ENDCHAR
STARTCHAR char98
ENCODING 98
SWIDTH 698 0
DWIDTH 8 0
BBX 6 9 1 0
BITMAP
C0
C0
F8
CC
CC
CC
CC
CC
F8
ENDCHAR
STARTCHAR char99
ENCODING 99
SWIDTH 610 0
DWIDTH 7 0
BBX 5 7 1 0
BITMAP
78
C8
C0
C0
C0
C0
78
ENDCHAR
STARTCHAR char100
ENCODING 100
SWIDTH 698 0
DWIDTH 8 0
BBX 6 9 1 0
BITMAP
0C
0C
7C
CC
CC
CC
CC
CC
7C
ENDCHAR
STARTCHAR char101
ENCODING 101
SWIDTH 698 0
DWIDTH 8 0
BBX 6 7 1 0
BITMAP
78
CC
CC
FC
C0
C0
7C
ENDCHAR
STARTCHAR char102
ENCODING 102
SWIDTH 610 0
DWIDTH 7 0
BBX 5 9 1 0
BITMAP
38
60
F8
60
60
60
60
60
60
ENDCHAR
STARTCHAR char103
ENCODING 103
SWIDTH 698 0
DWIDTH 8 0
BBX 6 10 1 -3
BITMAP
7C
CC
CC
CC
CC
CC
7C
0C
0C
78
ENDCHAR
STARTCHAR char104
ENCODING 104
SWIDTH 698 0
DWIDTH 8 0
BBX 6 9 1 0
BITMAP
C0
C0
F8
CC
CC
CC
CC
CC
CC
ENDCHAR
STARTCHAR char105
ENCODING 105
SWIDTH 349 0
DWIDTH 4 0
BBX 2 9 1 0
BITMAP
C0
00
C0
C0
C0
C0
C0
C0
C0
ENDCHAR
STARTCHAR char106
ENCODING 106
SWIDTH 436 0
DWIDTH 5 0
BBX 4 11 0 -2
BITMAP
30
00
30
30
30
30
30
30
30
30
E0
ENDCHAR
STARTCHAR char107
ENCODING 107
SWIDTH 698 0
DWIDTH 8 0
BBX 6 9 1 0
BITMAP
C0
C0
CC
CC
CC
F8
CC
CC
CC
ENDCHAR
STARTCHAR char108
ENCODING 108
SWIDTH 349 0
DWIDTH 4 0
BBX 2 9 1 0
BITMAP
C0
C0
C0
C0
C0
C0
C0
C0
C0
ENDCHAR
STARTCHAR char109
ENCODING 109
SWIDTH 1047 0
DWIDTH 12 0
BBX 10 7 1 0
BITMAP
FF80
CCC0
CCC0
CCC0
CCC0
CCC0
CCC0
ENDCHAR
STARTCHAR char110
ENCODING 110
SWIDTH 698 0
DWIDTH 8 0
BBX 6 7 1 0
BITMAP
F8
CC
CC
CC
CC
CC
CC
ENDCHAR
STARTCHAR char111
ENCODING 111
SWIDTH 698 0
DWIDTH 8 0
BBX 6 7 1 0
BITMAP
78
CC
CC
CC
CC
CC
78
ENDCHAR
STARTCHAR char112
ENCODING 112
SWIDTH 698 0
DWIDTH 8 0
BBX 6 10 1 -3
BITMAP
F8
CC
CC
CC
CC
CC
F8
C0
C0
C0
ENDCHAR
STARTCHAR char113
ENCODING 113
SWIDTH 698 0
DWIDTH 8 0
BBX 6 10 1 -3
BITMAP
7C
CC
CC
CC
CC
CC
7C
0C
0C
0C
ENDCHAR
STARTCHAR char114
ENCODING 114
SWIDTH 610 0
DWIDTH 7 0
BBX 5 7 1 0
BITMAP
D8
E0
C0
C0
C0
C0
C0
ENDCHAR
STARTCHAR char115
ENCODING 115
SWIDTH 610 0
DWIDTH 7 0
BBX 5 7 1 0
BITMAP
78
C0
E0
70
38
18
F0
ENDCHAR
STARTCHAR char116
ENCODING 116
SWIDTH 523 0
DWIDTH 6 0
BBX 4 8 1 0
BITMAP
60
F0
60
60
60
60
60
60
ENDCHAR
STARTCHAR char117
ENCODING 117
SWIDTH 698 0
DWIDTH 8 0
BBX 6 7 1 0
BITMAP
CC
CC
CC
CC
CC
CC
7C
ENDCHAR
STARTCHAR char118
ENCODING 118
SWIDTH 698 0
DWIDTH 8 0
BBX 6 7 1 0
BITMAP
CC
CC
CC
CC
D8
F0
E0
ENDCHAR
STARTCHAR char119
ENCODING 119
SWIDTH 1047 0
DWIDTH 12 0
BBX 10 7 1 0
BITMAP
CCC0
CCC0
CCC0
CCC0
CCC0
CCC0
7F80
ENDCHAR
STARTCHAR char120
ENCODING 120
SWIDTH 698 0
DWIDTH 8 0
BBX 6 7 1 0
BITMAP
CC
CC
CC
78
CC
CC
CC
ENDCHAR
STARTCHAR char121
ENCODING 121
SWIDTH 698 0
DWIDTH 8 0
BBX 6 10 1 -3
BITMAP
CC
CC
CC
CC
CC
CC
7C
0C
0C
78
ENDCHAR
STARTCHAR char122
ENCODING 122
SWIDTH 698 0
DWIDTH 8 0
BBX 6 7 1 0
BITMAP
FC
1C
38
70
E0
C0
FC
ENDCHAR
STARTCHAR char123
ENCODING 123
SWIDTH 436 0
DWIDTH 5 0
BBX 4 11 1 -2
BITMAP
30
60
60
60
20
E0
20
60
60
60
30
ENDCHAR
STARTCHAR char124
ENCODING 124
SWIDTH 349 0
DWIDTH 4 0
BBX 2 10 1 -1
BITMAP
C0
C0
C0
C0
C0
C0
C0
C0
C0
C0
ENDCHAR
STARTCHAR char125
ENCODING 125
SWIDTH 436 0
DWIDTH 5 0
BBX 4 11 1 -2
BITMAP
C0
60
60
60
40
70
40
60
60
60
C0
ENDCHAR
STARTCHAR char126
ENCODING 126
SWIDTH 698 0
DWIDTH 8 0
BBX 6 2 1 5
BITMAP
74
B8
ENDCHAR
STARTCHAR char141
ENCODING 141
SWIDTH 0 0
DWIDTH 0 0
BBX 0 0 0 0
BITMAP
ENDCHAR
STARTCHAR char33
ENCODING 161
SWIDTH 349 0
DWIDTH 4 0
BBX 2 10 1 -1
BITMAP
C0
C0
00
C0
C0
C0
C0
C0
C0
C0
ENDCHAR
STARTCHAR char99
ENCODING 162
SWIDTH 610 0
DWIDTH 7 0
BBX 5 9 1 -1
BITMAP
08
78
D0
D0
D0
D0
D0
78
20
ENDCHAR
STARTCHAR char102
ENCODING 163
SWIDTH 523 0
DWIDTH 6 0
BBX 5 8 0 0
BITMAP
38
60
60
F8
60
60
60
F8
ENDCHAR
STARTCHAR char164
ENCODING 164
SWIDTH 610 0
DWIDTH 7 0
BBX 5 5 1 2
BITMAP
88
70
50
70
88
ENDCHAR
STARTCHAR char165
ENCODING 165
SWIDTH 698 0
DWIDTH 8 0
BBX 7 8 0 0
BITMAP
C6
6C
6C
10
7C
10
38
10
ENDCHAR
STARTCHAR char166
ENCODING 166
SWIDTH 523 0
DWIDTH 6 0
BBX 2 8 2 0
BITMAP
C0
C0
C0
00
00
C0
C0
C0
ENDCHAR
STARTCHAR char21
ENCODING 167
SWIDTH 785 0
DWIDTH 9 0
BBX 8 10 0 0
BITMAP
1E
33
79
DC
CE
66
36
9E
CC
78
ENDCHAR
STARTCHAR char168
ENCODING 168
SWIDTH 610 0
DWIDTH 7 0
BBX 4 1 2 7
BITMAP
90
ENDCHAR
STARTCHAR char99
ENCODING 169
SWIDTH 960 0
DWIDTH 11 0
BBX 9 8 1 0
BITMAP
7F00
C180
DD80
D180
D180
DD80
C180
7F00
ENDCHAR
STARTCHAR char170
ENCODING 170
SWIDTH 610 0
DWIDTH 7 0
BBX 5 4 1 4
BITMAP
78
C8
D8
68
ENDCHAR
STARTCHAR char62
ENCODING 171
SWIDTH 960 0
DWIDTH 11 0
BBX 9 7 0 0
BITMAP
1980
3300
6600
CC00
6600
3300
1980
ENDCHAR
STARTCHAR char172
ENCODING 172
SWIDTH 610 0
DWIDTH 7 0
BBX 5 3 1 2
BITMAP
F8
F8
08
ENDCHAR
STARTCHAR char99
ENCODING 174
SWIDTH 960 0
DWIDTH 11 0
BBX 9 8 1 0
BITMAP
7F00
C180
D980
D580
D980
D580
C180
7F00
ENDCHAR
STARTCHAR char175
ENCODING 175
SWIDTH 785 0
DWIDTH 9 0
BBX 6 2 2 6
BITMAP
FC
FC
ENDCHAR
STARTCHAR char176
ENCODING 176
SWIDTH 349 0
DWIDTH 4 0
BBX 3 3 1 5
BITMAP
E0
A0
E0
ENDCHAR
STARTCHAR char177
ENCODING 177
SWIDTH 610 0
DWIDTH 7 0
BBX 5 8 1 0
BITMAP
20
20
F8
20
20
00
F8
F8
ENDCHAR
STARTCHAR char178
ENCODING 178
SWIDTH 523 0
DWIDTH 6 0
BBX 5 6 0 2
BITMAP
70
98
18
30
60
F8
ENDCHAR
STARTCHAR char51
ENCODING 179
SWIDTH 610 0
DWIDTH 7 0
BBX 5 5 0 3
BITMAP
F0
18
78
18
F0
ENDCHAR
STARTCHAR char180
ENCODING 180
SWIDTH 436 0
DWIDTH 5 0
BBX 3 2 2 5
BITMAP
60
C0
ENDCHAR
STARTCHAR char117
ENCODING 181
SWIDTH 698 0
DWIDTH 8 0
BBX 6 9 1 -2
BITMAP
CC
CC
CC
CC
CC
CC
F8
C0
C0
ENDCHAR
STARTCHAR char113
ENCODING 182
SWIDTH 785 0
DWIDTH 9 0
BBX 8 8 1 0
BITMAP
7F
CD
CD
CD
CD
7D
0D
0D
ENDCHAR
STARTCHAR char183
ENCODING 183
SWIDTH 349 0
DWIDTH 4 0
BBX 2 2 2 3
BITMAP
C0
C0
ENDCHAR
STARTCHAR char184
ENCODING 184
SWIDTH 523 0
DWIDTH 6 0
BBX 4 4 2 0
BITMAP
60
30
F0
F0
ENDCHAR
STARTCHAR char185
ENCODING 185
SWIDTH 261 0
DWIDTH 3 0
BBX 3 4 0 3
BITMAP
E0
60
60
60
ENDCHAR
STARTCHAR char111
ENCODING 186
SWIDTH 610 0
DWIDTH 7 0
BBX 5 4 1 4
BITMAP
70
D8
D8
70
ENDCHAR
STARTCHAR char62
ENCODING 187
SWIDTH 960 0
DWIDTH 11 0
BBX 9 7 0 0
BITMAP
CC00
6600
3300
1980
3300
6600
CC00
ENDCHAR
STARTCHAR char179
ENCODING 188
SWIDTH 785 0
DWIDTH 9 0
BBX 8 8 0 0
BITMAP
E0
60
62
66
0E
0A
0F
02
ENDCHAR
STARTCHAR char178
ENCODING 189
SWIDTH 872 0
DWIDTH 10 0
BBX 9 8 0 0
BITMAP
E000
6000
6700
6980
0180
0300
0600
0F80
ENDCHAR
STARTCHAR char179
ENCODING 190
SWIDTH 872 0
DWIDTH 10 0
BBX 9 9 0 -1
BITMAP
F000
1800
7800
1900
F300
0700
0500
0780
0100
ENDCHAR
STARTCHAR char63
ENCODING 191
SWIDTH 698 0
DWIDTH 8 0
BBX 6 8 1 0
BITMAP
30
00
30
30
18
0C
0C
F8
ENDCHAR
STARTCHAR char65
ENCODING 192
SWIDTH 698 0
DWIDTH 8 0
BBX 6 10 1 0
BITMAP
60
30
78
CC
CC
CC
FC
CC
CC
CC
ENDCHAR
STARTCHAR char65
ENCODING 193
SWIDTH 698 0
DWIDTH 8 0
BBX 6 10 1 0
BITMAP
18
30
78
CC
CC
CC
FC
CC
CC
CC
ENDCHAR
STARTCHAR char196
ENCODING 194
SWIDTH 698 0
DWIDTH 8 0
BBX 6 10 1 0
BITMAP
30
48
00
78
CC
CC
CC
FC
CC
CC
ENDCHAR
STARTCHAR char196
ENCODING 195
SWIDTH 698 0
DWIDTH 8 0
BBX 6 10 1 0
BITMAP
6C
D8
00
78
CC
CC
CC
FC
CC
CC
ENDCHAR
STARTCHAR char196
ENCODING 196
SWIDTH 698 0
DWIDTH 8 0
BBX 6 9 1 0
BITMAP
84
78
CC
CC
CC
FC
CC
CC
CC
ENDCHAR
STARTCHAR char197
ENCODING 197
SWIDTH 698 0
DWIDTH 8 0
BBX 6 9 1 0
BITMAP
30
78
CC
CC
CC
FC
CC
CC
CC
ENDCHAR
STARTCHAR char65
ENCODING 198
SWIDTH 872 0
DWIDTH 10 0
BBX 9 8 1 0
BITMAP
7F80
CC00
CC00
CF00
FC00
CC00
CC00
CF80
ENDCHAR
STARTCHAR char67
ENCODING 199
SWIDTH 698 0
DWIDTH 8 0
BBX 6 9 1 -1
BITMAP
78
C4
C0
C0
C0
C0
D4
78
10
ENDCHAR
STARTCHAR char69
ENCODING 200
SWIDTH 698 0
DWIDTH 8 0
BBX 6 10 1 0
BITMAP
60
30
FC
C0
C0
F8
C0
C0
C0
FC
ENDCHAR
STARTCHAR char69
ENCODING 201
SWIDTH 698 0
DWIDTH 8 0
BBX 6 10 1 0
BITMAP
18
30
FC
C0
C0
F8
C0
C0
C0
FC
ENDCHAR
STARTCHAR char69
ENCODING 202
SWIDTH 698 0
DWIDTH 8 0
BBX 6 10 1 0
BITMAP
30
48
FC
C0
C0
F8
C0
C0
C0
FC
ENDCHAR
STARTCHAR char69
ENCODING 203
SWIDTH 698 0
DWIDTH 8 0
BBX 6 10 1 0
BITMAP
6C
00
FC
C0
C0
F8
C0
C0
C0
FC
ENDCHAR
STARTCHAR char73
ENCODING 204
SWIDTH 523 0
DWIDTH 6 0
BBX 4 10 1 0
BITMAP
C0
60
00
F0
60
60
60
60
60
F0
ENDCHAR
STARTCHAR char73
ENCODING 205
SWIDTH 523 0
DWIDTH 6 0
BBX 4 10 1 0
BITMAP
30
60
00
F0
60
60
60
60
60
F0
ENDCHAR
STARTCHAR char73
ENCODING 206
SWIDTH 523 0
DWIDTH 6 0
BBX 4 10 1 0
BITMAP
60
90
00
F0
60
60
60
60
60
F0
ENDCHAR
STARTCHAR char73
ENCODING 207
SWIDTH 523 0
DWIDTH 6 0
BBX 6 10 0 0
BITMAP
CC
00
78
30
30
30
30
30
30
78
ENDCHAR
STARTCHAR char68
ENCODING 208
SWIDTH 610 0
DWIDTH 7 0
BBX 7 8 0 0
BITMAP
7C
66
66
F6
F6
66
66
7C
ENDCHAR
STARTCHAR char110
ENCODING 209
SWIDTH 698 0
DWIDTH 8 0
BBX 6 10 1 0
BITMAP
6C
D8
00
F8
CC
CC
CC
CC
CC
CC
ENDCHAR
STARTCHAR char79
ENCODING 210
SWIDTH 698 0
DWIDTH 8 0
BBX 6 10 1 0
BITMAP
60
30
78
CC
CC
CC
CC
CC
CC
78
ENDCHAR
STARTCHAR char79
ENCODING 211
SWIDTH 698 0
DWIDTH 8 0
BBX 6 10 1 0
BITMAP
18
30
78
CC
CC
CC
CC
CC
CC
78
ENDCHAR
STARTCHAR char79
ENCODING 212
SWIDTH 698 0
DWIDTH 8 0
BBX 6 10 1 0
BITMAP
30
48
00
78
CC
CC
CC
CC
CC
78
ENDCHAR
STARTCHAR char214
ENCODING 213
SWIDTH 698 0
DWIDTH 8 0
BBX 6 10 1 0
BITMAP
6C
D8
78
FC
CC
CC
CC
CC
CC
78
ENDCHAR
STARTCHAR char214
ENCODING 214
SWIDTH 698 0
DWIDTH 8 0
BBX 6 10 1 0
BITMAP
CC
00
78
CC
CC
CC
CC
CC
CC
78
ENDCHAR
STARTCHAR char215
ENCODING 215
SWIDTH 610 0
DWIDTH 7 0
BBX 5 4 1 2
BITMAP
D8
70
70
D8
ENDCHAR
STARTCHAR char79
ENCODING 216
SWIDTH 610 0
DWIDTH 7 0
BBX 7 9 0 -1
BITMAP
02
3C
6C
7C
7C
7C
6C
78
80
ENDCHAR
STARTCHAR char85
ENCODING 217
SWIDTH 698 0
DWIDTH 8 0
BBX 6 10 1 0
BITMAP
60
30
CC
CC
CC
CC
CC
CC
CC
7C
ENDCHAR
STARTCHAR char85
ENCODING 218
SWIDTH 698 0
DWIDTH 8 0
BBX 6 10 1 0
BITMAP
18
30
CC
CC
CC
CC
CC
CC
CC
7C
ENDCHAR
STARTCHAR char85
ENCODING 219
SWIDTH 698 0
DWIDTH 8 0
BBX 6 10 1 0
BITMAP
30
48
00
CC
CC
CC
CC
CC
CC
7C
ENDCHAR
STARTCHAR char85
ENCODING 220
SWIDTH 698 0
DWIDTH 8 0
BBX 6 10 1 0
BITMAP
6C
00
CC
CC
CC
CC
CC
CC
CC
7C
ENDCHAR
STARTCHAR char89
ENCODING 221
SWIDTH 698 0
DWIDTH 8 0
BBX 6 10 1 0
BITMAP
18
30
00
CC
CC
78
30
30
30
30
ENDCHAR
STARTCHAR char112
ENCODING 222
SWIDTH 698 0
DWIDTH 8 0
BBX 6 12 1 -3
BITMAP
C0
C0
C0
C0
F8
CC
CC
CC
F8
C0
C0
C0
ENDCHAR
STARTCHAR char223
ENCODING 223
SWIDTH 610 0
DWIDTH 7 0
BBX 7 8 0 0
BITMAP
38
CC
CC
D8
DC
C6
CE
DC
ENDCHAR
STARTCHAR char228
ENCODING 224
SWIDTH 698 0
DWIDTH 8 0
BBX 6 10 1 0
BITMAP
60
30
00
78
0C
7C
CC
CC
CC
7C
ENDCHAR
STARTCHAR char228
ENCODING 225
SWIDTH 698 0
DWIDTH 8 0
BBX 6 10 1 0
BITMAP
18
30
00
78
0C
7C
CC
CC
CC
7C
ENDCHAR
STARTCHAR char228
ENCODING 226
SWIDTH 698 0
DWIDTH 8 0
BBX 6 10 1 0
BITMAP
30
48
00
78
0C
7C
CC
CC
CC
7C
ENDCHAR
STARTCHAR char228
ENCODING 227
SWIDTH 698 0
DWIDTH 8 0
BBX 6 10 1 0
BITMAP
6C
D8
00
78
0C
7C
CC
CC
CC
7C
ENDCHAR
STARTCHAR char228
ENCODING 228
SWIDTH 698 0
DWIDTH 8 0
BBX 6 9 1 0
BITMAP
6C
00
78
0C
7C
CC
CC
CC
7C
ENDCHAR
STARTCHAR char229
ENCODING 229
SWIDTH 698 0
DWIDTH 8 0
BBX 6 9 1 0
BITMAP
30
00
78
0C
7C
CC
CC
CC
7C
ENDCHAR
STARTCHAR char97
ENCODING 230
SWIDTH 960 0
DWIDTH 11 0
BBX 10 7 1 0
BITMAP
7F80
0CC0
7CC0
CFC0
CC00
CC00
7FC0
ENDCHAR
STARTCHAR char99
ENCODING 231
SWIDTH 610 0
DWIDTH 7 0
BBX 5 8 1 -1
BITMAP
78
C8
C0
C0
C0
D0
78
10
ENDCHAR
STARTCHAR char101
ENCODING 232
SWIDTH 698 0
DWIDTH 8 0
BBX 6 10 1 0
BITMAP
60
30
00
78
CC
CC
FC
C0
C0
7C
ENDCHAR
STARTCHAR char101
ENCODING 233
SWIDTH 698 0
DWIDTH 8 0
BBX 6 10 1 0
BITMAP
18
30
00
78
CC
CC
FC
C0
C0
7C
ENDCHAR
STARTCHAR char101
ENCODING 234
SWIDTH 698 0
DWIDTH 8 0
BBX 6 10 1 0
BITMAP
10
28
00
78
CC
CC
FC
C0
C0
7C
ENDCHAR
STARTCHAR char101
ENCODING 235
SWIDTH 698 0
DWIDTH 8 0
BBX 6 9 1 0
BITMAP
6C
00
78
CC
CC
FC
C0
C0
7C
ENDCHAR
STARTCHAR char105
ENCODING 236
SWIDTH 261 0
DWIDTH 3 0
BBX 3 10 0 0
BITMAP
C0
60
00
60
60
60
60
60
60
60
ENDCHAR
STARTCHAR char105
ENCODING 237
SWIDTH 349 0
DWIDTH 4 0
BBX 3 10 1 0
BITMAP
60
C0
00
C0
C0
C0
C0
C0
C0
C0
ENDCHAR
STARTCHAR char105
ENCODING 238
SWIDTH 349 0
DWIDTH 4 0
BBX 4 10 0 0
BITMAP
60
90
00
60
60
60
60
60
60
60
ENDCHAR
STARTCHAR char105
ENCODING 239
SWIDTH 523 0
DWIDTH 6 0
BBX 6 9 0 0
BITMAP
CC
00
30
30
30
30
30
30
30
ENDCHAR
STARTCHAR char246
ENCODING 240
SWIDTH 610 0
DWIDTH 7 0
BBX 5 7 1 0
BITMAP
68
10
70
D8
D8
D8
70
ENDCHAR
STARTCHAR char110
ENCODING 241
SWIDTH 698 0
DWIDTH 8 0
BBX 6 9 1 0
BITMAP
6C
D8
00
F8
CC
CC
CC
CC
CC
ENDCHAR
STARTCHAR char246
ENCODING 242
SWIDTH 698 0
DWIDTH 8 0
BBX 6 10 1 0
BITMAP
60
30
00
78
CC
CC
CC
CC
CC
78
ENDCHAR
STARTCHAR char246
ENCODING 243
SWIDTH 698 0
DWIDTH 8 0
BBX 6 10 1 0
BITMAP
18
30
00
78
CC
CC
CC
CC
CC
78
ENDCHAR
STARTCHAR char246
ENCODING 244
SWIDTH 698 0
DWIDTH 8 0
BBX 6 10 1 0
BITMAP
30
48
00
78
CC
CC
CC
CC
CC
78
ENDCHAR
STARTCHAR char214
ENCODING 245
SWIDTH 698 0
DWIDTH 8 0
BBX 6 10 1 0
BITMAP
6C
D8
00
78
CC
CC
CC
CC
CC
78
ENDCHAR
STARTCHAR char246
ENCODING 246
SWIDTH 698 0
DWIDTH 8 0
BBX 6 9 1 0
BITMAP
CC
00
78
CC
CC
CC
CC
CC
78
ENDCHAR
STARTCHAR char247
ENCODING 247
SWIDTH 698 0
DWIDTH 8 0
BBX 6 7 2 1
BITMAP
30
30
00
FC
00
30
30
ENDCHAR
STARTCHAR char111
ENCODING 248
SWIDTH 610 0
DWIDTH 7 0
BBX 7 8 0 -1
BITMAP
02
3C
6C
7C
7C
6C
78
80
ENDCHAR
STARTCHAR char117
ENCODING 249
SWIDTH 698 0
DWIDTH 8 0
BBX 6 9 1 0
BITMAP
60
30
CC
CC
CC
CC
CC
CC
7C
ENDCHAR
STARTCHAR char117
ENCODING 250
SWIDTH 698 0
DWIDTH 8 0
BBX 6 10 1 0
BITMAP
18
30
00
CC
CC
CC
CC
CC
CC
7C
ENDCHAR
STARTCHAR char117
ENCODING 251
SWIDTH 698 0
DWIDTH 8 0
BBX 6 9 1 0
BITMAP
10
28
00
CC
CC
CC
CC
CC
7C
ENDCHAR
STARTCHAR char117
ENCODING 252
SWIDTH 698 0
DWIDTH 8 0
BBX 6 9 1 0
BITMAP
6C
00
CC
CC
CC
CC
CC
CC
7C
ENDCHAR
STARTCHAR char121
ENCODING 253
SWIDTH 698 0
DWIDTH 8 0
BBX 6 13 1 -3
BITMAP
18
30
00
CC
CC
CC
CC
CC
CC
7C
0C
0C
78
ENDCHAR
STARTCHAR char112
ENCODING 254
SWIDTH 698 0
DWIDTH 8 0
BBX 6 13 1 -3
BITMAP
C0
C0
C0
F8
CC
CC
CC
CC
CC
F8
C0
C0
C0
ENDCHAR
STARTCHAR char121
ENCODING 255
SWIDTH 698 0
DWIDTH 8 0
BBX 6 12 1 -3
BITMAP
6C
00
CC
CC
CC
CC
CC
CC
7C
0C
0C
78
ENDCHAR
ENDFONT
